<svg width="293" height="293" viewBox="0 0 293 293" fill="none" xmlns="http://www.w3.org/2000/svg">
<path d="M169.02 121.757L195.487 88.3325C206.229 74.763 204.155 55.342 190.874 44.9643C177.586 34.5803 158.103 37.1601 147.361 50.7296L145.626 52.9271L143.949 50.7751C133.559 37.4808 114.138 35.4195 100.575 46.1677C87.0052 56.9097 84.4254 76.3927 94.8094 89.6807L113.184 113.182L89.676 94.8141C76.3881 84.4175 56.9114 87.0035 46.1694 100.573C35.4275 114.143 37.4763 133.551 50.7768 143.948L52.9288 145.624L50.7314 147.359C37.1618 158.101 34.582 177.584 44.966 190.872C45.7263 191.851 46.5382 192.765 47.389 193.616C58.1678 204.395 75.7578 205.435 88.328 195.479L121.752 169.012C129.28 163.047 133.756 154.031 133.882 144.545C133.946 139.714 132.874 135.031 130.832 130.843C135.026 132.879 139.703 133.957 144.534 133.893C154.019 133.767 163.043 129.298 169 121.763L169.02 121.757Z" fill="white"/>
<path d="M197.838 202.996L179.472 179.489L202.978 197.856C216.265 208.239 235.748 205.658 246.491 192.088C257.233 178.518 255.18 159.103 241.886 148.714L239.734 147.038L241.932 145.303C255.502 134.56 258.083 115.078 247.7 101.791C237.323 88.5098 217.896 86.4435 204.327 97.1861L170.901 123.656C163.373 129.62 158.897 138.637 158.77 148.122C158.705 152.953 159.784 157.63 161.82 161.824C157.625 159.789 152.949 158.71 148.117 158.775C138.632 158.902 129.609 163.371 123.651 170.906L97.1815 204.331C87.2256 216.902 88.2705 234.498 99.0421 245.269C99.8928 246.12 100.807 246.932 101.786 247.692C115.073 258.075 134.556 255.494 145.299 241.924L147.033 239.726L148.71 241.878C159.08 255.165 178.513 257.225 192.083 246.483C205.653 235.74 208.234 216.257 197.851 202.97L197.838 202.996Z" fill="white"/>
</svg>
